# xmcd
#
# Track frame offsets:
#	150
#	14235
#	28283
#	47920
#	58779
#	69206
#	83888
#	96619
#	108844
#	119949
#	132427
#	148498
#	159575
#	174873
#	186591
#
# Disc length: 2719 seconds
#
# Revision: 1
# Processed by: cddbd v1.5.2PL0 Copyright (c) Steve Scherf et al.
# Submitted via: audiograbber 1.83.01
#
DISCID=ed0a9d0f
DTITLE=Allen Family, The - 2019
DYEAR=2019
DGENRE=Bluegrass
TTITLE0=Jerusalem Ridge
TTITLE1=Coal Miner's Daughter
TTITLE2=Peach Pickin' Time In Georgia
TTITLE3=Bubbles In The Beer
TTITLE4=Lovesick Blues
TTITLE5=Down Yonder
TTITLE6=Your Lone Journey
TTITLE7=Walking After Midnight
TTITLE8=Kinfolk In Carolina
TTITLE9=San Antonio Rose
TTITLE10=Farther Along
TTITLE11=Earl's Breakdown
TTITLE12=Snowbird
TTITLE13=(I Heard) That Lonesome Whistle
TTITLE14=Gentle On My Mind
EXTD=
EXTT0=
EXTT1=
EXTT2=
EXTT3=
EXTT4=
EXTT5=
EXTT6=
EXTT7=
EXTT8=
EXTT9=
EXTT10=
EXTT11=
EXTT12=
EXTT13=
EXTT14=
PLAYORDER=
